HIERARCHY
ROOT Hips
{
    OFFSET 0.000000 0.000000 0.000000
    CHANNELS 6 Xposition Yposition Zposition Zrotation Xrotation Yrotation
        JOINT Chest
        {
            OFFSET -0.000000 26.978363 -0.000000
            CHANNELS 3 Zrotation Xrotation Yrotation
            JOINT Neck
            {
                OFFSET -0.000000 19.720629 0.000000
                CHANNELS 3 Zrotation Xrotation Yrotation
                JOINT Head
                {
                    OFFSET -0.000000 9.655557 0.000000
                    CHANNELS 3 Zrotation Xrotation Yrotation
                    End Site
                    {
                        OFFSET -0.000000 14.922232 0.000000
                    }
                }
            }
            JOINT LeftCollar
            {
                OFFSET -0.000000 19.720629 0.000000
                CHANNELS 3 Zrotation Xrotation Yrotation
                JOINT LeftShoulder
                {
                    OFFSET 17.555553 -0.000000 0.000000
                    CHANNELS 3 Zrotation Xrotation Yrotation
                    JOINT LeftElbow
                    {
                        OFFSET 22.589397 0.000000 0.000000
                        CHANNELS 3 Zrotation Xrotation Yrotation
                        JOINT LeftWrist
                        {
                            OFFSET 20.401022 0.000000 0.000000
                            CHANNELS 3 Zrotation Xrotation Yrotation
                            End Site
                            {
                                OFFSET 0.000000 -13.166666 0.000000
                            }
                        }
                    }
                }
            }
            JOINT RightCollar
            {
                OFFSET -0.000000 19.720629 0.000000
                CHANNELS 3 Zrotation Xrotation Yrotation
                JOINT RightShoulder
                {
                    OFFSET -17.555553 0.000000 0.000000
                    CHANNELS 3 Zrotation Xrotation Yrotation
                    JOINT RightElbow
                    {
                        OFFSET -22.589397 0.000000 0.000000
                        CHANNELS 3 Zrotation Xrotation Yrotation
                        JOINT RightWrist
                        {
                            OFFSET -20.401022 0.000000 0.000000
                            CHANNELS 3 Zrotation Xrotation Yrotation
                            End Site
                            {
                                OFFSET -0.000000 -13.166666 0.000000
                            }
                        }
                    }
                }
            }
        }
    JOINT LeftHip
    {
        OFFSET 10.533332 0.000000 0.000000
        CHANNELS 3 Zrotation Xrotation Yrotation
        JOINT LeftKnee
        {
            OFFSET -0.000000 -40.048210 0.000000
            CHANNELS 3 Zrotation Xrotation Yrotation
            JOINT LeftAnkle
            {
                OFFSET -0.000000 -36.098888 0.000000
                CHANNELS 3 Zrotation Xrotation Yrotation
                End Site
                {
                    OFFSET -0.000000 -4.388888 14.922232
                }
            }
        }
    }
    JOINT RightHip
    {
        OFFSET -10.533332 0.000000 0.000000
        CHANNELS 3 Zrotation Xrotation Yrotation
        JOINT RightKnee
        {
            OFFSET -0.000000 -40.048210 0.000000
            CHANNELS 3 Zrotation Xrotation Yrotation
            JOINT RightAnkle
            {
                OFFSET -0.000000 -36.098888 0.000000
                CHANNELS 3 Zrotation Xrotation Yrotation
                End Site
                {
                    OFFSET -0.000000 -4.388888 14.922232
                }
            }
        }
    }
}
MOTION
Frames:    8
Frame Time:    0.010000
66.179405    82.821808    -23.315512    0.005274    3.665829    -72.148064    -0.538393    1.016024    0.704475    5.760715    5.462559    11.768992    -5.323049    10.798388    12.586856    -23.274429    -0.125690    0.746142    1.331212    63.604458    -52.553844    -4.325279    0.894580    -22.649326    110.763000    -1.491630    33.084476    15.102715    0.661197    5.195275    65.327507    1.311819    1.936557    9.050868    0.664398    8.628023    -76.841675    10.240202    35.888031    0.424363    -31.213587    8.936906    11.354221    26.159512    -15.821205    -5.956976    1.737815    -1.350465    11.256603    4.610598    -10.164606    1.397578    2.326524    -14.463321    -1.912722    -13.910117    -12.369083    
66.174469    82.821098    -23.321033    0.002196    3.676438    -72.147446    -0.579673    0.984374    0.704681    6.055727    5.577456    11.544526    -4.391715    9.485736    12.202863    -23.273191    -0.097700    0.361773    1.234108    63.743454    -52.345837    -4.534041    0.933427    -22.486078    108.914154    -3.286588    33.111656    15.197426    0.635147    4.877889    65.337746    1.305149    1.923971    9.027275    0.689111    8.647322    -76.849800    10.204109    35.819805    0.446845    -31.211309    8.990112    11.363992    26.147234    -15.795807    -5.950108    1.750082    -1.428687    11.275018    4.608760    -10.158646    1.402426    2.344367    -14.387576    -2.011165    -13.903320    -12.474901    
66.158325    82.801865    -23.319513    0.002791    3.664714    -72.140785    -0.597445    0.998731    0.716903    6.047025    5.549598    11.574737    -4.426517    9.547134    12.237956    -23.255623    -0.069605    0.407552    1.407906    63.734638    -52.531464    -4.350876    0.894476    -22.617195    110.472557    -1.701404    33.126270    15.190334    0.634542    4.876280    65.356773    1.322129    1.951322    9.030952    0.661373    8.550023    -76.887474    10.142319    35.888916    0.432519    -31.214027    8.998060    11.375937    26.152840    -15.829457    -5.581844    1.990251    -1.518973    11.272250    4.613897    -10.169474    1.394880    2.335367    -14.456391    -1.948211    -13.905647    -12.403714    
66.156479    82.802849    -23.322422    0.002442    3.664013    -72.137062    -0.602783    1.002119    0.723021    6.045778    5.551333    11.588188    -4.429838    9.570278    12.252636    -23.254793    -0.097577    0.415462    1.484256    63.757328    -52.607517    -4.289393    0.838571    -22.598389    110.482254    -1.679032    33.159992    15.189794    0.662574    4.879142    65.365715    1.320026    1.978787    9.023839    0.688596    8.488539    -76.906776    10.102723    35.877869    0.434573    -31.214365    9.018791    11.384142    26.151150    -15.842635    -5.576389    2.031409    -1.532369    11.275329    4.615120    -10.172338    1.394631    2.335249    -14.452254    -1.961551    -13.905853    -12.416965    
66.155533    82.805557    -23.325859    0.002339    3.662986    -72.132187    -0.609292    1.005481    0.729839    6.050038    5.556704    11.596909    -4.439733    9.594510    12.263416    -23.253635    -0.077785    0.411279    1.479260    63.747807    -52.589291    -4.328293    0.876195    -22.615152    110.518196    -1.617991    33.168732    15.195661    0.634996    4.871693    65.368980    1.356116    1.969634    9.029971    0.654868    8.582636    -76.963913    10.134037    35.868462    0.435977    -31.214895    9.039988    11.393072    26.149876    -15.861522    -5.579600    2.060356    -1.539575    11.277998    4.616694    -10.175755    1.394398    2.332904    -14.440931    -1.976911    -13.908052    -12.437255    
66.154900    82.809158    -23.329487    0.002644    3.661222    -72.125961    -0.614723    1.009551    0.736857    6.040946    5.561041    11.614413    -4.446360    9.620610    12.282096    -23.253151    -0.077782    0.419983    1.535636    63.746281    -52.641129    -4.302417    0.835111    -22.613762    110.569595    -1.561313    33.193825    15.193252    0.674499    4.875855    65.381104    1.336219    2.002435    9.027680    0.682814    8.447962    -77.014748    10.069825    35.886658    0.435805    -31.215548    9.059475    11.402087    26.149103    -15.885293    -5.584253    2.078434    -1.541586    11.279905    4.618701    -10.179942    1.394065    2.328162    -14.422456    -1.993717    -13.912598    -12.464614    
66.154068    82.812904    -23.333055    0.003335    3.658680    -72.118164    -0.620773    1.013353    0.743511    6.030141    5.566912    11.631045    -4.453523    9.645740    12.300266    -23.252733    -0.105756    0.425904    1.605839    63.773411    -52.706123    -4.241316    0.846781    -22.613138    110.581863    -1.470410    33.278870    15.196685    0.654938    4.877510    65.382393    1.366814    1.999720    9.038547    0.649793    8.549964    -77.095581    10.114036    35.873203    0.433684    -31.216303    9.075545    11.410691    26.149076    -15.912933    -5.590323    2.087616    -1.537788    11.281231    4.621383    -10.185138    1.393420    2.320637    -14.399939    -2.010399    -13.918843    -12.496150    
66.152664    82.816238    -23.336401    0.004456    3.655387    -72.108887    -0.628269    1.016110    0.749275    6.021883    5.575425    11.643209    -4.463594    9.669724    12.314276    -23.252562    -0.071490    0.422766    1.602483    63.750446    -52.685722    -4.310460    0.845290    -22.642702    110.682571    -1.409411    33.265846    15.200653    0.655276    4.871725    65.389168    1.368706    2.003977    9.040632    0.670109    8.506680    -77.157341    10.101832    35.860603    0.429515    -31.217133    9.086554    11.418121    26.149792    -15.941514    -5.601113    2.089405    -1.528067    11.282114    4.624678    -10.191031    1.392430    2.310727    -14.379357    -2.024763    -13.926210    -12.526309    
